<svg width="54" height="62" viewBox="0 0 54 62" fill="none" xmlns="http://www.w3.org/2000/svg">
<rect width="54" height="54" fill="#AE4A84"/>
<path d="M27 62L20.0718 53.75H33.9282L27 62Z" fill="#AE4A84"/>
<path d="M35.848 35.784C34.4845 35.784 33.7615 35.2522 33.1805 34.8249C32.6575 34.4403 32.2797 34.1624 31.4385 34.1624C30.5975 34.1624 30.2197 34.4403 29.6968 34.8249C29.116 35.2522 28.3931 35.784 27.0296 35.784C25.6662 35.784 24.9433 35.2522 24.3624 34.8249C23.8394 34.4403 23.4616 34.1624 22.6205 34.1624C21.7796 34.1624 21.4018 34.4403 20.879 34.8249C20.2981 35.2522 19.5752 35.784 18.2117 35.784C16.8483 35.784 16.0875 35.2522 15.5067 34.8249C15.3311 34.6957 15.1818 34.5791 15 34.4804V39.0001H39V34.4584C38.8182 34.5614 38.6665 34.6861 38.4775 34.8249C37.8967 35.2522 37.2115 35.784 35.848 35.784Z" fill="white"/>
<path d="M15 29.6755V33.0484C15.6364 33.2412 16.0645 33.5533 16.4323 33.8238C16.9551 34.2084 17.3518 34.4864 18.1927 34.4864C19.0337 34.4864 19.421 34.2084 19.9439 33.8238C20.5247 33.3965 21.2524 32.8648 22.6157 32.8648C23.9792 32.8648 24.7045 33.3966 25.2854 33.8238C25.8084 34.2084 26.1873 34.4864 27.0284 34.4864C27.8694 34.4864 28.2478 34.2084 28.7707 33.8238C29.3515 33.3965 30.0747 32.8648 31.4382 32.8648C32.8017 32.8648 33.5249 33.3966 34.1057 33.8238C34.6287 34.2084 35.0066 34.4864 35.8478 34.4864C36.6889 34.4864 37.029 34.2084 37.552 33.8238C37.9353 33.5419 38.3635 33.2155 38.9998 33.0253V29.6755H15Z" fill="white"/>
<path d="M36 23.0269H18V28.2971H36V23.0269Z" fill="white"/>
<path d="M21.7275 18.8453C22.182 18.617 22.5152 18.1789 22.5152 17.6757C22.5152 16.9369 21.0227 15 21.0227 15C21.0227 15 19.5115 16.9369 19.5115 17.6757C19.5115 18.1791 19.8184 18.6171 20.2729 18.8454V21.6486H21.7275V18.8453Z" fill="white"/>
<path d="M27.7272 18.8208C28.1817 18.5865 28.4696 18.1621 28.4696 17.6757C28.4696 16.9369 26.9772 15 26.9772 15C26.9772 15 25.4658 16.9369 25.4658 17.6757C25.4658 18.1952 25.818 18.6447 26.2725 18.8663V21.6486H27.7271V18.8208H27.7272Z" fill="white"/>
<path d="M33.7276 18.8453C34.1821 18.617 34.5153 18.1789 34.5153 17.6757C34.5153 16.9369 33.0228 15 33.0228 15C33.0228 15 31.5115 16.9369 31.5115 17.6757C31.5115 18.1791 31.8184 18.6171 32.2729 18.8454V21.6486H33.7275V18.8453H33.7276Z" fill="white"/>
</svg>
