<svg width="54" height="62" viewBox="0 0 54 62" fill="none" xmlns="http://www.w3.org/2000/svg">
<rect width="54" height="54" fill="#AE4A84"/>
<path d="M27 62L20.0718 53.75H33.9282L27 62Z" fill="#AE4A84"/>
<path d="M38.9432 17.1764L37.1568 15.3899C36.6635 14.87 35.797 14.87 35.277 15.3899L23.332 27.335L26.9982 31.0011L38.9432 19.0561C39.4631 18.5362 39.4631 17.6696 38.9432 17.1764ZM20.6657 29.668C19.605 29.668 18.5877 30.0893 17.8377 30.8394C17.0877 31.5894 16.6663 32.6067 16.6663 33.6674C16.6663 35.4138 15.1198 36.3337 14 36.3337C15.2265 37.9601 17.3329 39 19.3326 39C20.7469 39 22.1032 38.4382 23.1033 37.4381C24.1034 36.4381 24.6652 35.0817 24.6652 33.6674C24.6652 32.6067 24.2438 31.5894 23.4938 30.8394C22.7437 30.0893 21.7265 29.668 20.6657 29.668Z" fill="white"/>
</svg>
