<svg width="54" height="62" viewBox="0 0 54 62" fill="none" xmlns="http://www.w3.org/2000/svg">
<rect width="54" height="54" fill="#AE4A84"/>
<path d="M27 62L20.0718 53.75H33.9282L27 62Z" fill="#AE4A84"/>
<path d="M19 23L20.3333 17.6667H33.6667L35 23H19ZM36.2267 16.3333C35.9467 15.5333 35.1867 15 34.3333 15H19.6667C18.8133 15 18.0533 15.5333 17.7733 16.3333L15 24.3333V35C15 35.3536 15.1405 35.6928 15.3905 35.9428C15.6406 36.1929 15.9797 36.3333 16.3333 36.3333H17.6667C18.0203 36.3333 18.3594 36.1929 18.6095 35.9428C18.8595 35.6928 19 35.3536 19 35V32.3333H35V35C35 35.3536 35.1405 35.6928 35.3905 35.9428C35.6406 36.1929 35.9797 36.3333 36.3333 36.3333H37.6667C38.0203 36.3333 38.3594 36.1929 38.6095 35.9428C38.8595 35.6928 39 35.3536 39 35V24.3333L36.2267 16.3333ZM20.3333 29.6667H17.6667V27H20.3333V29.6667ZM36.3333 29.6667H33.6667V27H36.3333V29.6667ZM29.6667 29.6667H24.3333V27H29.6667V29.6667Z" fill="white"/>
</svg>
