<svg width="65" height="64" viewBox="0 0 65 64" fill="none" xmlns="http://www.w3.org/2000/svg">
<path d="M32.5 53.4807C32.5 54.1998 32.1208 54.8243 31.5431 55.146L17.2792 63.5481C16.9903 63.7752 16.6292 63.8887 16.25 63.8887C15.8708 63.8887 15.5097 63.7752 15.2208 63.5481L0.956944 55.146C0.379167 54.8243 0 54.1998 0 53.4807V36.4495C0 35.7304 0.379167 35.1059 0.956944 34.7842L15.2208 26.3821C15.5097 26.155 15.8708 26.0415 16.25 26.0415C16.6292 26.0415 16.9903 26.155 17.2792 26.3821L31.5431 34.7842C32.1208 35.1059 32.5 35.7304 32.5 36.4495V53.4807ZM16.25 30.1101L5.48889 36.4495L16.25 42.7889L27.0111 36.4495L16.25 30.1101ZM3.61111 52.3642L14.4444 58.7604V46.0627L3.61111 39.6854V52.3642ZM28.8889 52.3642V39.6854L18.0556 46.0627V58.7604L28.8889 52.3642Z" fill="black"/>
<path d="M3.33325 39.4448L14.5832 46.0073V58.924L2.70825 52.7782L3.33325 39.4448Z" fill="black"/>
<path d="M48.7502 27.4392C48.7502 28.1583 48.3711 28.7828 47.7933 29.1045L33.5294 37.5066C33.2405 37.7337 32.8794 37.8472 32.5002 37.8472C32.1211 37.8472 31.76 37.7337 31.4711 37.5066L17.2072 29.1045C16.6294 28.7828 16.2502 28.1583 16.2502 27.4392V10.408C16.2502 9.68889 16.6294 9.06441 17.2072 8.74271L31.4711 0.340625C31.76 0.113542 32.1211 0 32.5002 0C32.8794 0 33.2405 0.113542 33.5294 0.340625L47.7933 8.74271C48.3711 9.06441 48.7502 9.68889 48.7502 10.408V27.4392ZM32.5002 4.06858L21.7391 10.408L32.5002 16.7474L43.2614 10.408L32.5002 4.06858ZM19.8614 26.3227L30.6947 32.7189V20.0212L19.8614 13.6439V26.3227ZM45.1391 26.3227V13.6439L34.3058 20.0212V32.7189L45.1391 26.3227Z" fill="black"/>
<path d="M19.5837 13.4028L30.8337 19.9653V32.882L18.9587 26.7362L19.5837 13.4028Z" fill="black"/>
<path d="M65 53.4807C65 54.1998 64.6208 54.8243 64.0431 55.146L49.7792 63.5481C49.4903 63.7752 49.1292 63.8887 48.75 63.8887C48.3708 63.8887 48.0097 63.7752 47.7208 63.5481L33.4569 55.146C32.8792 54.8243 32.5 54.1998 32.5 53.4807V36.4495C32.5 35.7304 32.8792 35.1059 33.4569 34.7842L47.7208 26.3821C48.0097 26.155 48.3708 26.0415 48.75 26.0415C49.1292 26.0415 49.4903 26.155 49.7792 26.3821L64.0431 34.7842C64.6208 35.1059 65 35.7304 65 36.4495V53.4807ZM48.75 30.1101L37.9889 36.4495L48.75 42.7889L59.5111 36.4495L48.75 30.1101ZM36.1111 52.3642L46.9444 58.7604V46.0627L36.1111 39.6854V52.3642ZM61.3889 52.3642V39.6854L50.5556 46.0627V58.7604L61.3889 52.3642Z" fill="black"/>
<path d="M35.8335 39.4448L47.0835 46.0073V58.924L35.2085 52.7782L35.8335 39.4448Z" fill="black"/>
</svg>
