<svg width="54" height="62" viewBox="0 0 54 62" fill="none" xmlns="http://www.w3.org/2000/svg">
<rect width="54" height="54" fill="#AE4A84"/>
<path d="M27 62L20.0718 53.75H33.9282L27 62Z" fill="#AE4A84"/>
<path d="M37.5269 32.1829C39.5569 32.1829 40.2796 30.5345 40.304 29.4058L40.304 24.5336C40.2959 22.4954 38.6556 21.7808 37.5269 21.7564L34.7578 21.7646L32.6547 19.6614C31.1118 18.1185 29.4066 18.0373 28.018 18.5164L20.8071 18.5164L17.559 21.7646L16.4141 21.7564C14.3759 21.7646 13.6613 23.4049 13.6369 24.5336L13.6369 29.4058C13.6369 30.2828 13.9455 30.9161 14.3921 31.3628C14.9686 31.9393 15.7807 32.1829 16.4141 32.1829L20.8071 32.1748L23.7223 35.09C25.1028 36.4704 26.6619 36.308 27.7581 35.7152C28.9193 36.3892 30.1211 36.1943 31.0063 35.7152C32.5897 36.6491 34.2544 35.9264 35.0908 35.09L37.5269 32.6539L37.0478 32.1748L37.5269 32.1829ZM33.4667 33.4659C33.1013 33.8313 32.5004 34.1237 31.8426 33.4659L31.0306 32.6539L30.2186 33.4659C29.8532 33.8313 29.2523 34.1237 28.5945 33.4659L27.7825 32.6539L26.9705 33.4659C26.605 33.8313 26.0041 34.1237 25.3464 33.4659L21.7653 29.8849L16.4384 29.8849C15.9512 29.8686 15.9431 29.5844 15.9431 29.4058L15.935 24.5579C15.9512 24.0707 16.2354 24.0626 16.4141 24.0626L18.5172 24.0545L21.7653 20.8064H25.0135L23.7223 22.0975C22.7398 23.08 21.9359 25.1832 23.7223 26.9697C25.5088 28.7561 27.612 27.9522 28.5945 26.9697L34.2787 32.6539L33.4667 33.4659ZM37.5269 29.8767L34.7578 29.8849L28.5945 23.7215L26.9705 25.3456C26.605 25.711 26.0041 26.0034 25.3464 25.3456C24.6887 24.6879 24.981 24.087 25.3464 23.7215L27.7825 21.2855C28.156 20.9119 29.5446 19.7994 31.0306 21.2855L33.7996 24.0545L37.5025 24.0545C37.9897 24.0707 37.9978 24.3549 37.9978 24.5336L38.006 29.3814C37.9897 29.8686 37.7055 29.8767 37.5269 29.8767Z" fill="white"/>
</svg>
