<svg width="30" height="30" viewBox="0 0 30 30" fill="none" xmlns="http://www.w3.org/2000/svg">
<path d="M15 0L16.8825 4.92944L20.4186 1.01292L20.3933 6.28953L25.1054 3.91487L23.1757 8.82601L28.4274 8.31392L24.8539 12.1963L29.936 13.616L25.2013 15.9453L29.4274 19.1049L24.1709 19.5666L26.9703 24.0395L21.902 22.5711L22.8965 27.7533L18.7009 24.5532L17.7562 29.7446L15 25.245L12.2438 29.7446L11.2991 24.5532L7.10352 27.7533L8.09799 22.5711L3.02974 24.0395L5.82905 19.5666L0.572616 19.1049L4.7987 15.9453L0.0639877 13.616L5.1461 12.1963L1.57255 8.31392L6.82431 8.82601L4.89457 3.91487L9.6067 6.28953L9.58138 1.01292L13.1175 4.92944L15 0Z" fill="#E20AC6"/>
</svg>
