<svg width="54" height="62" viewBox="0 0 54 62" fill="none" xmlns="http://www.w3.org/2000/svg">
<rect width="54" height="54" fill="#AE4A84"/>
<path d="M27 62L20.0718 53.75H33.9282L27 62Z" fill="#AE4A84"/>
<path d="M33.1137 15C32.6211 15 32.1411 15.1895 31.7621 15.5558L29.0842 18.2337L35.7789 24.9411L38.4568 22.2884C39.2147 21.5179 39.2147 20.3179 38.4568 19.5853L34.4526 15.5558C34.0737 15.1895 33.5937 15 33.1137 15ZM28.1874 19.1305L17.9558 29.3747L21.1895 29.7284L21.4168 32.6211L24.2968 32.8358L24.6632 36.0695L34.8947 25.8253L28.1874 19.1305ZM17.2105 30.5495L15 39L23.4632 36.7389L23.16 34.0105L20.2421 33.7958L20.0147 30.8653" fill="white"/>
</svg>
