<svg width="14" height="21" viewBox="0 0 14 21" fill="none" xmlns="http://www.w3.org/2000/svg">
<path d="M7.37436 12.3744L8.55288 13.5529C9.33428 12.7715 9.77326 11.7117 9.77326 10.6066C9.77326 9.50153 9.33428 8.44172 8.55288 7.66032L7.37436 8.83883C7.84321 9.30767 8.1066 9.94356 8.1066 10.6066C8.1066 11.2696 7.84321 11.9055 7.37436 12.3744ZM9.73139 14.7314L10.9099 15.9099C13.8562 12.9636 13.8385 8.2319 10.9099 5.3033L9.73139 6.48181C12.0059 8.75634 12.0118 12.451 9.73139 14.7314ZM8.25825 17.383C7.52168 16.6465 6.93242 15.8215 6.49048 14.9435C6.34906 14.6725 6.07211 14.4898 5.74213 14.4898H3.1494C2.33034 11.9737 2.33034 9.23953 3.1494 6.72341H5.74213C6.07211 6.72341 6.34906 6.54074 6.49048 6.26968C6.93242 5.39169 7.52168 4.56673 8.25825 3.83016C8.41453 3.67388 8.50233 3.46192 8.50233 3.24091C8.50233 3.01989 8.41453 2.80793 8.25825 2.65165L6.19585 0.589256C6.03957 0.432975 5.82761 0.345178 5.6066 0.345178C5.38558 0.345178 5.17362 0.432975 5.01734 0.589256C2.36058 3.24602 0.868022 6.84937 0.868022 10.6066C0.868022 14.3638 2.36058 17.9672 5.01734 20.6239C5.17362 20.7802 5.38558 20.868 5.6066 20.868C5.82761 20.868 6.03957 20.7802 6.19585 20.6239L8.25825 18.5616C8.41453 18.4053 8.50233 18.1933 8.50233 17.9723C8.50233 17.7513 8.41453 17.5393 8.25825 17.383Z" fill="black"/>
</svg>
