<svg width="22" height="20" viewBox="0 0 22 20" fill="none" xmlns="http://www.w3.org/2000/svg">
<path d="M8.17143 0C10.3386 0 12.4171 0.782651 13.9495 2.17578C15.4819 3.56891 16.3429 5.45839 16.3429 7.42857C16.3429 9.26857 15.6011 10.96 14.3817 12.2629L14.7211 12.5714H15.7143L22 18.2857L20.1143 20L13.8286 14.2857V13.3829L13.4891 13.0743C12.056 14.1829 10.1954 14.8571 8.17143 14.8571C6.00423 14.8571 3.9258 14.0745 2.39336 12.6814C0.860916 11.2882 0 9.39875 0 7.42857C0 5.45839 0.860916 3.56891 2.39336 2.17578C3.9258 0.782651 6.00423 0 8.17143 0ZM8.17143 2.28571C5.02857 2.28571 2.51429 4.57143 2.51429 7.42857C2.51429 10.2857 5.02857 12.5714 8.17143 12.5714C11.3143 12.5714 13.8286 10.2857 13.8286 7.42857C13.8286 4.57143 11.3143 2.28571 8.17143 2.28571Z" fill="#E5E5E5"/>
</svg>
