<svg width="72" height="56" viewBox="0 0 72 56" fill="none" xmlns="http://www.w3.org/2000/svg">
<path d="M36 0C38.7848 0 41.4555 1.42413 43.4246 3.95911C45.3938 6.49408 46.5 9.93225 46.5 13.5172C46.5 17.1022 45.3938 20.5404 43.4246 23.0754C41.4555 25.6103 38.7848 27.0345 36 27.0345C33.2152 27.0345 30.5445 25.6103 28.5754 23.0754C26.6062 20.5404 25.5 17.1022 25.5 13.5172C25.5 9.93225 26.6062 6.49408 28.5754 3.95911C30.5445 1.42413 33.2152 0 36 0V0ZM15 9.65517C16.68 9.65517 18.24 10.2345 19.59 11.2772C19.14 16.8 20.4 22.2841 22.98 26.571C21.48 30.2786 18.48 32.8276 15 32.8276C12.6131 32.8276 10.3239 31.6069 8.63604 29.4341C6.94821 27.2612 6 24.3142 6 21.2414C6 18.1685 6.94821 15.2215 8.63604 13.0487C10.3239 10.8759 12.6131 9.65517 15 9.65517V9.65517ZM57 9.65517C59.3869 9.65517 61.6761 10.8759 63.364 13.0487C65.0518 15.2215 66 18.1685 66 21.2414C66 24.3142 65.0518 27.2612 63.364 29.4341C61.6761 31.6069 59.3869 32.8276 57 32.8276C53.52 32.8276 50.52 30.2786 49.02 26.571C51.6 22.2841 52.86 16.8 52.41 11.2772C53.76 10.2345 55.32 9.65517 57 9.65517ZM16.5 49.2414C16.5 41.2469 25.23 34.7586 36 34.7586C46.77 34.7586 55.5 41.2469 55.5 49.2414V56H16.5V49.2414ZM0 56V50.2069C0 44.8386 5.67 40.32 13.35 39.0069C11.58 41.6331 10.5 45.2634 10.5 49.2414V56H0ZM72 56H61.5V49.2414C61.5 45.2634 60.42 41.6331 58.65 39.0069C66.33 40.32 72 44.8386 72 50.2069V56Z" fill="black"/>
</svg>
