<svg width="18" height="18" viewBox="0 0 18 18" fill="none" xmlns="http://www.w3.org/2000/svg">
<path fill-rule="evenodd" clip-rule="evenodd" d="M8.99441 17.8453H8.99072C7.49793 17.8448 6.03112 17.4703 4.72834 16.7597L0 18L1.26538 13.378C0.484833 12.0253 0.0741117 10.4909 0.0747811 8.91891C0.0767377 4.00106 4.07801 0 8.99432 0C11.3804 0.00102981 13.6199 0.929917 15.3039 2.61588C16.9878 4.30177 17.9148 6.54271 17.9138 8.92595C17.9118 13.8427 13.9122 17.8433 8.99441 17.8453V17.8453ZM4.94737 15.145L5.21808 15.3056C6.35632 15.9811 7.66108 16.3385 8.99138 16.339H8.99438C13.0805 16.339 16.4062 13.0133 16.4078 8.92547C16.4086 6.94455 15.6382 5.08197 14.2385 3.68066C12.8388 2.27935 10.9774 1.50725 8.9973 1.50657C4.90803 1.50657 1.58231 4.83199 1.58069 8.91947C1.58011 10.3203 1.97206 11.6845 2.71416 12.8648L2.89043 13.1453L2.14151 15.881L4.94737 15.145ZM13.488 11.047C13.4323 10.954 13.2837 10.8982 13.0609 10.7867C12.838 10.6751 11.7423 10.136 11.5379 10.0616C11.3337 9.98722 11.1851 9.95007 11.0365 10.1731C10.888 10.3962 10.4608 10.8982 10.3308 11.047C10.2008 11.1957 10.0708 11.2144 9.84802 11.1028C9.62515 10.9912 8.90703 10.7559 8.05575 9.99659C7.3932 9.40561 6.94592 8.67582 6.81592 8.45269C6.68591 8.22957 6.80206 8.109 6.91363 7.99786C7.0139 7.89797 7.13651 7.73749 7.24794 7.6074C7.35936 7.4773 7.39651 7.38427 7.4708 7.23564C7.54508 7.08683 7.50795 6.95673 7.45222 6.84517C7.39651 6.73361 6.9508 5.63661 6.76508 5.19036C6.58416 4.75578 6.40043 4.81465 6.26364 4.80779C6.13379 4.80126 5.98505 4.79989 5.83649 4.79989C5.68792 4.79989 5.44646 4.85567 5.24218 5.0788C5.0379 5.30192 4.46216 5.84111 4.46216 6.93802C4.46216 8.03502 5.26074 9.09478 5.37218 9.2435C5.48361 9.3923 6.94371 11.6433 9.17942 12.6087C9.71114 12.8383 10.1262 12.9755 10.4499 13.0782C10.9838 13.2478 11.4697 13.2239 11.8537 13.1665C12.2819 13.1025 13.1722 12.6274 13.358 12.1068C13.5437 11.5861 13.5437 11.1399 13.488 11.047V11.047Z" fill="#FDFDFD"/>
</svg>
