
  <svg width="0" height="0" class="hidden">
  <symbol  xmlns="http://www.w3.org/2000/svg" viewBox="0 0 14 21" id="phone">
    <path d="M7.374 12.374l1.179 1.179a4.167 4.167 0 000-5.893L7.374 8.84a2.5 2.5 0 010 3.535zm2.357 2.357l1.179 1.179a7.485 7.485 0 000-10.607L9.73 6.482a5.834 5.834 0 010 8.25zm-1.473 2.652a9.466 9.466 0 01-1.768-2.44.836.836 0 00-.748-.453H3.15a12.58 12.58 0 010-7.767h2.593c.33 0 .607-.182.748-.453a9.467 9.467 0 011.768-2.44.833.833 0 000-1.178L6.196.589a.833.833 0 00-1.179 0 14.167 14.167 0 000 20.035.833.833 0 001.179 0l2.062-2.062a.833.833 0 000-1.179z"></path>
  </symbol>
  <symbol  xmlns="http://www.w3.org/2000/svg" viewBox="0 0 10 15" id="map-icon">
    <path d="M5 7.125c-.474 0-.928-.198-1.263-.55a1.924 1.924 0 01-.523-1.325c0-.497.188-.974.523-1.326.335-.351.79-.549 1.263-.549.474 0 .928.198 1.263.55.335.35.523.828.523 1.325 0 .246-.046.49-.136.718-.09.227-.221.434-.387.608a1.782 1.782 0 01-.58.406A1.712 1.712 0 015 7.125zM5 0a4.882 4.882 0 00-3.536 1.538A5.386 5.386 0 000 5.25C0 9.188 5 15 5 15s5-5.813 5-9.75a5.386 5.386 0 00-1.464-3.712A4.882 4.882 0 005 0z"></path>
  </symbol>
  <symbol  xmlns="http://www.w3.org/2000/svg" viewBox="0 0 20 16" id="envelope">
    <path d="M18 3.958l-8 4.948-8-4.948V1.98l8 4.948 8-4.948v1.98zM18 0H2C.89 0 0 .88 0 1.98v11.874c0 .525.21 1.029.586 1.4.375.37.884.58 1.414.58h16c.53 0 1.04-.21 1.414-.58a1.97 1.97 0 00.586-1.4V1.98C20 .881 19.1 0 18 0z"></path>
  </symbol>
  <symbol xmlns="http://www.w3.org/2000/svg" viewBox="0 0 22 20" id="search">
    <path d="M8.171 0c2.168 0 4.246.783 5.779 2.176 1.532 1.393 2.393 3.282 2.393 5.253 0 1.84-.742 3.531-1.961 4.834l.34.308h.992L22 18.286 20.114 20l-6.285-5.714v-.903l-.34-.309c-1.433 1.109-3.294 1.783-5.318 1.783-2.167 0-4.245-.782-5.778-2.176C.861 11.288 0 9.4 0 7.43c0-1.97.86-3.86 2.393-5.253C3.926.783 6.004 0 8.171 0zm0 2.286c-3.142 0-5.657 2.285-5.657 5.143 0 2.857 2.515 5.142 5.657 5.142 3.143 0 5.658-2.285 5.658-5.142 0-2.858-2.515-5.143-5.658-5.143z" ></path>
  </symbol>

  <symbol  xmlns="http://www.w3.org/2000/svg" viewBox="0 0 10 28" id="fb">
    <path fill-rule="evenodd" clip-rule="evenodd" d="M6.205 27.553V13.775h2.761l.366-4.748H6.205L6.21 6.65c0-1.238.085-1.901 1.377-1.901h1.725V0h-2.76C3.234 0 2.066 2.303 2.066 6.177v2.85H0v4.748h2.067v13.778h4.138z" ></path>
  </symbol>
  <symbol  xmlns="http://www.w3.org/2000/svg" viewBox="0 0 20 20" id="instagram">
    <path d="M10.006 1.801c2.673 0 2.99.012 4.041.059.977.043 1.505.207 1.857.344.465.18.801.398 1.149.746.352.351.567.684.746 1.148.137.352.301.883.344 1.856.047 1.055.06 1.372.06 4.04 0 2.672-.013 2.989-.06 4.04-.043.977-.207 1.504-.344 1.856-.18.465-.398.8-.746 1.148a3.078 3.078 0 01-1.15.747c-.35.137-.883.3-1.856.343-1.055.047-1.372.06-4.041.06-2.674 0-2.99-.013-4.042-.06-.977-.042-1.504-.206-1.856-.343a3.094 3.094 0 01-1.15-.747 3.076 3.076 0 01-.746-1.148c-.137-.352-.3-.883-.344-1.856-.047-1.055-.058-1.371-.058-4.04 0-2.672.011-2.989.058-4.04.043-.976.207-1.504.344-1.856.18-.464.399-.8.747-1.148a3.078 3.078 0 011.149-.746c.352-.137.883-.301 1.856-.344 1.052-.047 1.368-.059 4.042-.059zm0-1.801C7.289 0 6.949.012 5.882.059 4.82.105 4.088.277 3.455.524c-.66.257-1.22.597-1.774 1.156A4.9 4.9 0 00.524 3.45C.278 4.087.106 4.813.059 5.876.012 6.946 0 7.286 0 10.002c0 2.715.012 3.055.059 4.122.047 1.063.219 1.793.465 2.426.258.66.598 1.22 1.157 1.774a4.892 4.892 0 001.77 1.152c.637.247 1.364.419 2.427.465 1.067.047 1.408.059 4.124.059 2.716 0 3.056-.012 4.123-.059 1.064-.046 1.794-.218 2.428-.464a4.892 4.892 0 001.77-1.153 4.89 4.89 0 001.153-1.77c.247-.637.419-1.363.465-2.426.047-1.067.059-1.407.059-4.122 0-2.716-.012-3.055-.059-4.122-.046-1.063-.218-1.793-.465-2.426a4.685 4.685 0 00-1.145-1.778 4.892 4.892 0 00-1.77-1.153C15.923.281 15.196.11 14.133.063 13.063.012 12.723 0 10.006 0z" ></path>
    <path d="M10.006 4.864a5.14 5.14 0 00-5.14 5.138 5.14 5.14 0 0010.28 0 5.14 5.14 0 00-5.14-5.138zm0 8.47a3.334 3.334 0 110-6.667 3.334 3.334 0 010 6.668zm6.543-8.674a1.2 1.2 0 11-2.4 0 1.2 1.2 0 012.4 0z" ></path>
  </symbol>
  <symbol  xmlns="http://www.w3.org/2000/svg" viewBox="0 0 20 20" id="telegram">
    <path d="M7.524 18.79l.31-5.594 8.523-9.15c.377-.41-.078-.609-.577-.252L5.26 11.715.71 9.996c-.976-.33-.987-1.137.223-1.719L18.653.131c.81-.436 1.588.238 1.277 1.72L16.912 18.79c-.211 1.203-.821 1.494-1.665.939l-4.594-4.047-2.208 2.553c-.255.304-.466.555-.921.555z" ></path>
  </symbol>

  <symbol  xmlns="http://www.w3.org/2000/svg" viewBox="0 0 11 9" id="polygon">
    <path d="M5.5 9L.737.75h9.526L5.5 9z" ></path>
  </symbol>
  <symbol  xmlns="http://www.w3.org/2000/svg" viewBox="0 0 30 30" id="icon-star">
    <path d="M15 0l1.883 4.93 3.536-3.917-.026 5.277 4.712-2.375-1.93 4.911 5.252-.512-3.573 3.882 5.082 1.42-4.735 2.33 4.226 3.159-5.256.462 2.8 4.473-5.069-1.469.994 5.182-4.195-3.2-.945 5.192-2.756-4.5-2.756 4.5-.945-5.192-4.195 3.2.994-5.182L3.03 24.04l2.799-4.472-5.256-.462 4.226-3.16-4.735-2.329 5.082-1.42-3.573-3.882 5.251.512-1.93-4.911L9.608 6.29 9.58 1.013l3.537 3.916L15 0z" ></path>
  </symbol>
<symbol  xmlns="http://www.w3.org/2000/svg" viewBox="0 0 14 17" id="upload">
    <path d="M4 13V7H0l7-7 7 7h-4v6H4zm-4 4v-2h14v2H0z" ></path>
  </symbol>
<symbol  xmlns="http://www.w3.org/2000/svg" viewBox="0 0 30 22" id="burger">
    <path  stroke-width="2" d="M0 11h30M0 1h30M0 21h30"></path>
  </symbol>

  <symbol  xmlns="http://www.w3.org/2000/svg" viewBox="0 0 18 18" id="whatsup">
    <path fill-rule="evenodd" clip-rule="evenodd" d="M8.994 17.845h-.003a8.911 8.911 0 01-4.263-1.085L0 18l1.265-4.622a8.903 8.903 0 01-1.19-4.46C.077 4.002 4.078 0 8.995 0a8.862 8.862 0 016.309 2.616 8.866 8.866 0 012.61 6.31c-.002 4.917-4.002 8.917-8.92 8.92zm-4.047-2.7l.271.16a7.402 7.402 0 003.773 1.034h.003c4.087 0 7.412-3.326 7.414-7.414a7.37 7.37 0 00-2.17-5.244 7.363 7.363 0 00-5.24-2.174c-4.09 0-7.416 3.325-7.417 7.412 0 1.401.391 2.765 1.133 3.946l.176.28-.748 2.736 2.805-.736zm8.541-4.098c-.056-.093-.204-.149-.427-.26-.223-.112-1.319-.651-1.523-.725-.204-.075-.353-.112-.502.111-.148.223-.575.725-.705.874-.13.149-.26.167-.483.056-.223-.112-.941-.347-1.792-1.106-.663-.591-1.11-1.321-1.24-1.544-.13-.223-.014-.344.098-.455.1-.1.223-.26.334-.39.111-.13.149-.224.223-.372.074-.15.037-.28-.019-.39-.055-.112-.501-1.21-.687-1.656-.18-.434-.365-.375-.501-.382a8.841 8.841 0 00-.428-.008.819.819 0 00-.594.279c-.204.223-.78.762-.78 1.859s.799 2.157.91 2.305c.112.15 1.572 2.4 3.807 3.366.532.23.947.367 1.27.47.535.169 1.02.145 1.405.087.428-.064 1.318-.539 1.504-1.06.186-.52.186-.966.13-1.059z" ></path>
  </symbol>

</svg>

